<svg width="106" height="106" viewBox="0 0 106 106" fill="none" xmlns="http://www.w3.org/2000/svg">
<path d="M0 37.6891C0 24.4965 0 17.9004 2.5674 12.8615C4.82576 8.42931 8.42931 4.82576 12.8615 2.5674C17.9004 0 24.4965 0 37.6891 0H68.3109C81.5034 0 88.0996 0 93.1384 2.5674C97.5707 4.82576 101.174 8.42931 103.433 12.8615C106 17.9004 106 24.4965 106 37.6891V68.3109C106 81.5034 106 88.0996 103.433 93.1384C101.174 97.5707 97.5707 101.174 93.1384 103.433C88.0996 106 81.5034 106 68.3109 106H37.6891C24.4965 106 17.9004 106 12.8615 103.433C8.42931 101.174 4.82576 97.5707 2.5674 93.1384C0 88.0996 0 81.5034 0 68.3109V37.6891Z" fill="white"/>
<path d="M75.9091 24.6938L53.2437 42.3824L30.0601 24.6938V24.6986L30.0881 24.7225V49.4912L52.9824 67.562L75.9091 50.1889V24.6938Z" fill="#EA4335"/>
<path d="M81.859 20.3915L75.9067 24.694V50.1892L94.6366 35.8092V27.1465C94.6366 27.1465 92.3632 14.7742 81.859 20.3915Z" fill="#FBBC05"/>
<path d="M75.9067 50.1891V83.257H90.2622C90.2622 83.257 94.3473 82.8364 94.6411 78.1799V35.8091L75.9067 50.1891Z" fill="#34A853"/>
<path d="M30.0594 24.6979L24.1397 20.4192C13.6356 14.8019 11.3574 27.1695 11.3574 27.1695V35.8319L30.0594 49.4666V24.6979Z" fill="#C5221F"/>
<path d="M30.0601 24.6997V49.4685L30.0891 49.4923V24.7236L30.0601 24.6997Z" fill="#C5221F"/>
<path d="M11.3574 35.8389V78.2097C11.6469 82.8711 15.7365 83.2871 15.7365 83.2871H30.0921L30.0594 49.4686L11.3574 35.8389Z" fill="#4285F4"/>
</svg>
