<svg width="106" height="106" viewBox="0 0 106 106" fill="none" xmlns="http://www.w3.org/2000/svg">
<rect x="3" y="3" width="90" height="90" fill="#D9D9D9"/>
<path d="M90.3208 90.3204H74.6152V65.7197C74.6152 59.8543 74.5092 52.3019 66.4443 52.3019C58.2647 52.3019 57.0103 58.6972 57.0103 65.2868V90.3204H41.3047V39.7321H56.3832V46.6486H56.5952C59.6692 41.4016 65.3932 38.2569 71.4705 38.4778C87.3882 38.4778 90.3297 48.9452 90.3297 62.575L90.3208 90.3116V90.3204ZM23.585 32.8156C21.1724 32.804 18.8618 31.8411 17.1549 30.1359C15.4481 28.4308 14.4829 26.1211 14.469 23.7085C14.469 18.7088 18.5853 14.5925 23.585 14.5925C28.5847 14.5925 32.6922 18.7088 32.701 23.7085C32.701 28.7081 28.5847 32.8156 23.585 32.8156ZM31.4378 90.3204H15.7145V39.7321H31.4378V90.3204ZM98.1383 -9.75905e-05H7.8175C5.7695 -0.0119928 3.79955 0.784826 2.33574 2.2172C0.871929 3.64958 0.0325479 5.60177 0 7.64954V98.3499C0.0325479 100.398 0.871929 102.35 2.33574 103.782C3.79955 105.215 5.7695 106.011 7.8175 106H98.1472C100.2 106.016 102.176 105.222 103.647 103.79C105.117 102.357 105.963 100.402 106 98.3499V7.64071C105.963 5.58985 105.117 3.63682 103.646 2.20724C102.175 0.777663 100.198 -0.0125801 98.1472 0.00873507L98.1383 -9.75905e-05Z" fill="#0A66C2"/>
</svg>
