<svg width="600" height="130" viewBox="0 0 600 130" fill="none" xmlns="http://www.w3.org/2000/svg">
<mask id="path-1-outside-1_27_158" maskUnits="userSpaceOnUse" x="145" y="30" width="436" height="85" fill="black">
<rect fill="white" x="145" y="30" width="436" height="85"/>
<path d="M187.7 35.9C181.1 35.9 175.067 37.6 169.6 41C164.2 44.3333 159.9 48.8333 156.7 54.5C153.567 60.1 152 66.1333 152 72.6C152 79.1333 153.6 85.2 156.8 90.8C160 96.4 164.233 100.867 169.5 104.2C174.833 107.467 180.567 109.1 186.7 109.1C190.3 109.1 193.5 108.767 196.3 108.1C199.167 107.433 201.9 106.367 204.5 104.9V81.4H179.7V78.5H207.8V102.8L208 102.7V106.4C204.8 108.333 201.5 109.733 198.1 110.6C194.767 111.533 191.1 112 187.1 112C180.1 112 173.667 110.3 167.8 106.9C161.933 103.433 157.267 98.7 153.8 92.7C150.4 86.6333 148.7 79.8333 148.7 72.3C148.7 65.0333 150.467 58.4 154 52.4C157.6 46.4 162.367 41.6667 168.3 38.2C174.3 34.7333 180.667 33 187.4 33C192.067 33 195.767 33.4333 198.5 34.3C201.233 35.1 204.4 36.5333 208 38.6V42.3C204.6 39.9667 201.433 38.3333 198.5 37.4C195.633 36.4 192.033 35.9 187.7 35.9ZM281.874 65H285.074V71.8C288.141 66.5333 293.074 63.9 299.874 63.9C303.141 63.9 305.974 64.8333 308.374 66.7C310.774 68.5 312.441 71.2333 313.374 74.9C314.241 71.6333 316.141 69 319.074 67C322.074 64.9333 325.441 63.9 329.174 63.9C334.041 63.9 337.808 65.3333 340.474 68.2C343.141 71 344.474 75 344.474 80.2V110H341.274V80.2C341.274 76 340.174 72.7 337.974 70.3C335.841 67.9 333.008 66.7 329.474 66.7C326.808 66.7 324.341 67.3667 322.074 68.7C319.808 69.9667 318.008 71.7 316.674 73.9C315.341 76.1 314.674 78.5333 314.674 81.2V110H311.474V82C311.474 77.2 310.341 73.4667 308.074 70.8C305.808 68.0667 302.874 66.7 299.274 66.7C296.874 66.7 294.574 67.3 292.374 68.5C290.241 69.7 288.474 71.3333 287.074 73.4C285.741 75.4 285.074 77.6 285.074 80V110H281.874V65ZM366.97 54.7C366.036 54.7 365.203 54.3667 364.47 53.7C363.803 53.0333 363.47 52.2 363.47 51.2C363.47 50.2667 363.803 49.4667 364.47 48.8C365.203 48.1333 366.036 47.8 366.97 47.8C367.903 47.8 368.703 48.1333 369.37 48.8C370.103 49.4667 370.47 50.2667 370.47 51.2C370.47 52.2 370.103 53.0333 369.37 53.7C368.703 54.3667 367.903 54.7 366.97 54.7ZM365.37 65H368.57V110H365.37V65ZM402.58 37.9H385.28V35H422.98V37.9H405.88V110H402.58V37.9ZM432.485 54.7C431.552 54.7 430.718 54.3667 429.985 53.7C429.318 53.0333 428.985 52.2 428.985 51.2C428.985 50.2667 429.318 49.4667 429.985 48.8C430.718 48.1333 431.552 47.8 432.485 47.8C433.418 47.8 434.218 48.1333 434.885 48.8C435.618 49.4667 435.985 50.2667 435.985 51.2C435.985 52.2 435.618 53.0333 434.885 53.7C434.218 54.3667 433.418 54.7 432.485 54.7ZM430.885 65H434.085V110H430.885V65ZM454.995 65H458.195V71.8C461.262 66.5333 466.195 63.9 472.995 63.9C476.262 63.9 479.095 64.8333 481.495 66.7C483.895 68.5 485.562 71.2333 486.495 74.9C487.362 71.6333 489.262 69 492.195 67C495.195 64.9333 498.562 63.9 502.295 63.9C507.162 63.9 510.929 65.3333 513.595 68.2C516.262 71 517.595 75 517.595 80.2V110H514.395V80.2C514.395 76 513.295 72.7 511.095 70.3C508.962 67.9 506.129 66.7 502.595 66.7C499.929 66.7 497.462 67.3667 495.195 68.7C492.929 69.9667 491.129 71.7 489.795 73.9C488.462 76.1 487.795 78.5333 487.795 81.2V110H484.595V82C484.595 77.2 483.462 73.4667 481.195 70.8C478.929 68.0667 475.995 66.7 472.395 66.7C469.995 66.7 467.695 67.3 465.495 68.5C463.362 69.7 461.595 71.3333 460.195 73.4C458.862 75.4 458.195 77.6 458.195 80V110H454.995V65ZM558.091 108.4C561.557 108.4 564.857 107.5 567.991 105.7C571.124 103.9 573.724 101.433 575.791 98.3V103.4C573.324 106.133 570.624 108.133 567.691 109.4C564.757 110.6 561.424 111.2 557.691 111.2C553.557 111.2 549.657 110.1 545.991 107.9C542.391 105.7 539.491 102.767 537.291 99.1C535.157 95.4333 534.091 91.5333 534.091 87.4C534.091 82.9333 535.157 78.9333 537.291 75.4C539.424 71.8 542.324 69 545.991 67C549.724 65 553.857 64 558.391 64C565.324 64 571.224 66.7333 576.091 72.2L544.691 103.2C546.891 105 549.024 106.333 551.091 107.2C553.157 108 555.491 108.4 558.091 108.4ZM537.291 87.1C537.291 92.6333 539.124 97.3667 542.791 101.3L572.091 72.2C569.891 70.2667 567.757 68.9 565.691 68.1C563.624 67.2333 561.157 66.8 558.291 66.8C554.224 66.8 550.591 67.7 547.391 69.5C544.257 71.2333 541.791 73.6333 539.991 76.7C538.191 79.7667 537.291 83.2333 537.291 87.1Z"/>
</mask>
<path d="M187.7 35.9C181.1 35.9 175.067 37.6 169.6 41C164.2 44.3333 159.9 48.8333 156.7 54.5C153.567 60.1 152 66.1333 152 72.6C152 79.1333 153.6 85.2 156.8 90.8C160 96.4 164.233 100.867 169.5 104.2C174.833 107.467 180.567 109.1 186.7 109.1C190.3 109.1 193.5 108.767 196.3 108.1C199.167 107.433 201.9 106.367 204.5 104.9V81.4H179.7V78.5H207.8V102.8L208 102.7V106.4C204.8 108.333 201.5 109.733 198.1 110.6C194.767 111.533 191.1 112 187.1 112C180.1 112 173.667 110.3 167.8 106.9C161.933 103.433 157.267 98.7 153.8 92.7C150.4 86.6333 148.7 79.8333 148.7 72.3C148.7 65.0333 150.467 58.4 154 52.4C157.6 46.4 162.367 41.6667 168.3 38.2C174.3 34.7333 180.667 33 187.4 33C192.067 33 195.767 33.4333 198.5 34.3C201.233 35.1 204.4 36.5333 208 38.6V42.3C204.6 39.9667 201.433 38.3333 198.5 37.4C195.633 36.4 192.033 35.9 187.7 35.9ZM281.874 65H285.074V71.8C288.141 66.5333 293.074 63.9 299.874 63.9C303.141 63.9 305.974 64.8333 308.374 66.7C310.774 68.5 312.441 71.2333 313.374 74.9C314.241 71.6333 316.141 69 319.074 67C322.074 64.9333 325.441 63.9 329.174 63.9C334.041 63.9 337.808 65.3333 340.474 68.2C343.141 71 344.474 75 344.474 80.2V110H341.274V80.2C341.274 76 340.174 72.7 337.974 70.3C335.841 67.9 333.008 66.7 329.474 66.7C326.808 66.7 324.341 67.3667 322.074 68.7C319.808 69.9667 318.008 71.7 316.674 73.9C315.341 76.1 314.674 78.5333 314.674 81.2V110H311.474V82C311.474 77.2 310.341 73.4667 308.074 70.8C305.808 68.0667 302.874 66.7 299.274 66.7C296.874 66.7 294.574 67.3 292.374 68.5C290.241 69.7 288.474 71.3333 287.074 73.4C285.741 75.4 285.074 77.6 285.074 80V110H281.874V65ZM366.97 54.7C366.036 54.7 365.203 54.3667 364.47 53.7C363.803 53.0333 363.47 52.2 363.47 51.2C363.47 50.2667 363.803 49.4667 364.47 48.8C365.203 48.1333 366.036 47.8 366.97 47.8C367.903 47.8 368.703 48.1333 369.37 48.8C370.103 49.4667 370.47 50.2667 370.47 51.2C370.47 52.2 370.103 53.0333 369.37 53.7C368.703 54.3667 367.903 54.7 366.97 54.7ZM365.37 65H368.57V110H365.37V65ZM402.58 37.9H385.28V35H422.98V37.9H405.88V110H402.58V37.9ZM432.485 54.7C431.552 54.7 430.718 54.3667 429.985 53.7C429.318 53.0333 428.985 52.2 428.985 51.2C428.985 50.2667 429.318 49.4667 429.985 48.8C430.718 48.1333 431.552 47.8 432.485 47.8C433.418 47.8 434.218 48.1333 434.885 48.8C435.618 49.4667 435.985 50.2667 435.985 51.2C435.985 52.2 435.618 53.0333 434.885 53.7C434.218 54.3667 433.418 54.7 432.485 54.7ZM430.885 65H434.085V110H430.885V65ZM454.995 65H458.195V71.8C461.262 66.5333 466.195 63.9 472.995 63.9C476.262 63.9 479.095 64.8333 481.495 66.7C483.895 68.5 485.562 71.2333 486.495 74.9C487.362 71.6333 489.262 69 492.195 67C495.195 64.9333 498.562 63.9 502.295 63.9C507.162 63.9 510.929 65.3333 513.595 68.2C516.262 71 517.595 75 517.595 80.2V110H514.395V80.2C514.395 76 513.295 72.7 511.095 70.3C508.962 67.9 506.129 66.7 502.595 66.7C499.929 66.7 497.462 67.3667 495.195 68.7C492.929 69.9667 491.129 71.7 489.795 73.9C488.462 76.1 487.795 78.5333 487.795 81.2V110H484.595V82C484.595 77.2 483.462 73.4667 481.195 70.8C478.929 68.0667 475.995 66.7 472.395 66.7C469.995 66.7 467.695 67.3 465.495 68.5C463.362 69.7 461.595 71.3333 460.195 73.4C458.862 75.4 458.195 77.6 458.195 80V110H454.995V65ZM558.091 108.4C561.557 108.4 564.857 107.5 567.991 105.7C571.124 103.9 573.724 101.433 575.791 98.3V103.4C573.324 106.133 570.624 108.133 567.691 109.4C564.757 110.6 561.424 111.2 557.691 111.2C553.557 111.2 549.657 110.1 545.991 107.9C542.391 105.7 539.491 102.767 537.291 99.1C535.157 95.4333 534.091 91.5333 534.091 87.4C534.091 82.9333 535.157 78.9333 537.291 75.4C539.424 71.8 542.324 69 545.991 67C549.724 65 553.857 64 558.391 64C565.324 64 571.224 66.7333 576.091 72.2L544.691 103.2C546.891 105 549.024 106.333 551.091 107.2C553.157 108 555.491 108.4 558.091 108.4ZM537.291 87.1C537.291 92.6333 539.124 97.3667 542.791 101.3L572.091 72.2C569.891 70.2667 567.757 68.9 565.691 68.1C563.624 67.2333 561.157 66.8 558.291 66.8C554.224 66.8 550.591 67.7 547.391 69.5C544.257 71.2333 541.791 73.6333 539.991 76.7C538.191 79.7667 537.291 83.2333 537.291 87.1Z" fill="white"/>
<path d="M169.6 41L171.176 43.5528L171.184 43.5475L169.6 41ZM156.7 54.5L154.088 53.0248L154.082 53.0351L156.7 54.5ZM156.8 90.8L154.195 92.2884L156.8 90.8ZM169.5 104.2L167.896 106.735L167.914 106.747L167.933 106.758L169.5 104.2ZM196.3 108.1L195.62 105.178L195.613 105.18L195.605 105.182L196.3 108.1ZM204.5 104.9L205.974 107.513L207.5 106.652V104.9H204.5ZM204.5 81.4H207.5V78.4H204.5V81.4ZM179.7 81.4H176.7V84.4H179.7V81.4ZM179.7 78.5V75.5H176.7V78.5H179.7ZM207.8 78.5H210.8V75.5H207.8V78.5ZM207.8 102.8H204.8V107.654L209.142 105.483L207.8 102.8ZM208 102.7H211V97.8459L206.658 100.017L208 102.7ZM208 106.4L209.551 108.968L211 108.093V106.4H208ZM198.1 110.6L197.359 107.693L197.325 107.702L197.291 107.711L198.1 110.6ZM167.8 106.9L166.274 109.483L166.285 109.489L166.296 109.496L167.8 106.9ZM153.8 92.7L151.183 94.1667L151.193 94.1838L151.202 94.2008L153.8 92.7ZM154 52.4L151.428 50.8565L151.421 50.8671L151.415 50.8777L154 52.4ZM168.3 38.2L166.799 35.6024L166.793 35.606L166.787 35.6097L168.3 38.2ZM198.5 34.3L197.593 37.1597L197.625 37.1698L197.657 37.1792L198.5 34.3ZM208 38.6H211V36.863L209.494 35.9982L208 38.6ZM208 42.3L206.302 44.7735L211 47.9973V42.3H208ZM198.5 37.4L197.512 40.2326L197.551 40.2462L197.59 40.2588L198.5 37.4ZM187.7 32.9C180.555 32.9 173.97 34.749 168.016 38.4525L171.184 43.5475C176.163 40.451 181.645 38.9 187.7 38.9V32.9ZM168.024 38.4472C162.182 42.0535 157.53 46.929 154.088 53.0248L159.312 55.9752C162.27 50.7377 166.218 46.6132 171.176 43.5528L168.024 38.4472ZM154.082 53.0351C150.696 59.0864 149 65.6246 149 72.6H155C155 66.6421 156.437 61.1136 159.318 55.9649L154.082 53.0351ZM149 72.6C149 79.6483 150.733 86.229 154.195 92.2884L159.405 89.3116C156.467 84.171 155 78.6183 155 72.6H149ZM154.195 92.2884C157.63 98.2983 162.2 103.13 167.896 106.735L171.104 101.665C166.266 98.603 162.37 94.5017 159.405 89.3116L154.195 92.2884ZM167.933 106.758C173.728 110.308 180.002 112.1 186.7 112.1V106.1C181.131 106.1 175.938 104.626 171.067 101.642L167.933 106.758ZM186.7 112.1C190.478 112.1 193.919 111.751 196.995 111.018L195.605 105.182C193.081 105.783 190.122 106.1 186.7 106.1V112.1ZM196.98 111.022C200.128 110.29 203.129 109.118 205.974 107.513L203.026 102.287C200.671 103.615 198.205 104.577 195.62 105.178L196.98 111.022ZM207.5 104.9V81.4H201.5V104.9H207.5ZM204.5 78.4H179.7V84.4H204.5V78.4ZM182.7 81.4V78.5H176.7V81.4H182.7ZM179.7 81.5H207.8V75.5H179.7V81.5ZM204.8 78.5V102.8H210.8V78.5H204.8ZM209.142 105.483L209.342 105.383L206.658 100.017L206.458 100.117L209.142 105.483ZM205 102.7V106.4H211V102.7H205ZM206.449 103.832C203.484 105.623 200.456 106.904 197.359 107.693L198.841 113.507C202.544 112.563 206.116 111.043 209.551 108.968L206.449 103.832ZM197.291 107.711C194.258 108.56 190.868 109 187.1 109V115C191.332 115 195.275 114.506 198.909 113.489L197.291 107.711ZM187.1 109C180.61 109 174.699 107.431 169.304 104.304L166.296 109.496C172.635 113.169 179.59 115 187.1 115V109ZM169.326 104.317C163.912 101.118 159.611 96.7603 156.398 91.1992L151.202 94.2008C154.923 100.64 159.955 105.749 166.274 109.483L169.326 104.317ZM156.417 91.2333C153.289 85.6516 151.7 79.3637 151.7 72.3H145.7C145.7 80.303 147.511 87.6151 151.183 94.1667L156.417 91.2333ZM151.7 72.3C151.7 65.5443 153.336 59.4404 156.585 53.9223L151.415 50.8777C147.598 57.3596 145.7 64.5223 145.7 72.3H151.7ZM156.572 53.9435C159.918 48.3676 164.324 43.9978 169.813 40.7903L166.787 35.6097C160.41 39.3356 155.282 44.4324 151.428 50.8565L156.572 53.9435ZM169.801 40.7976C175.358 37.5865 181.209 36 187.4 36V30C180.124 30 173.242 31.8802 166.799 35.6024L169.801 40.7976ZM187.4 36C191.926 36 195.279 36.4258 197.593 37.1597L199.407 31.4403C196.255 30.4409 192.207 30 187.4 30V36ZM197.657 37.1792C200.086 37.89 203.027 39.2045 206.506 41.2018L209.494 35.9982C205.773 33.8622 202.381 32.3099 199.343 31.4208L197.657 37.1792ZM205 38.6V42.3H211V38.6H205ZM209.698 39.8265C206.132 37.3794 202.7 35.5881 199.41 34.5412L197.59 40.2588C200.167 41.0786 203.068 42.5539 206.302 44.7735L209.698 39.8265ZM199.488 34.5674C196.2 33.4203 192.238 32.9 187.7 32.9V38.9C191.828 38.9 195.067 39.3797 197.512 40.2326L199.488 34.5674ZM281.874 65V62H278.874V65H281.874ZM285.074 65H288.074V62H285.074V65ZM285.074 71.8H282.074V82.9141L287.667 73.3096L285.074 71.8ZM308.374 66.7L306.532 69.0681L306.553 69.0842L306.574 69.1L308.374 66.7ZM313.374 74.9L310.467 75.64L313.314 86.8254L316.274 75.6693L313.374 74.9ZM319.074 67L320.764 69.4787L320.77 69.4746L320.776 69.4705L319.074 67ZM340.474 68.2L338.278 70.2433L338.29 70.2562L338.302 70.269L340.474 68.2ZM344.474 110V113H347.474V110H344.474ZM341.274 110H338.274V113H341.274V110ZM337.974 70.3L335.732 72.2931L335.747 72.3102L335.763 72.3272L337.974 70.3ZM322.074 68.7L323.538 71.3188L323.567 71.3026L323.595 71.2858L322.074 68.7ZM316.674 73.9L314.109 72.3451V72.3451L316.674 73.9ZM314.674 110V113H317.674V110H314.674ZM311.474 110H308.474V113H311.474V110ZM308.074 70.8L305.765 72.715L305.777 72.729L305.788 72.7429L308.074 70.8ZM292.374 68.5L290.938 65.8663L290.92 65.8757L290.903 65.8853L292.374 68.5ZM287.074 73.4L284.59 71.7175L284.584 71.7267L284.578 71.7359L287.074 73.4ZM285.074 110V113H288.074V110H285.074ZM281.874 110H278.874V113H281.874V110ZM281.874 68H285.074V62H281.874V68ZM282.074 65V71.8H288.074V65H282.074ZM287.667 73.3096C290.125 69.0876 293.993 66.9 299.874 66.9V60.9C292.155 60.9 286.157 63.979 282.482 70.2904L287.667 73.3096ZM299.874 66.9C302.527 66.9 304.699 67.6423 306.532 69.0681L310.216 64.3319C307.249 62.0243 303.755 60.9 299.874 60.9V66.9ZM306.574 69.1C308.296 70.3916 309.657 72.4599 310.467 75.64L316.282 74.16C315.224 70.0068 313.252 66.6084 310.174 64.3L306.574 69.1ZM316.274 75.6693C316.946 73.1366 318.394 71.095 320.764 69.4787L317.384 64.5213C313.888 66.905 311.536 70.1301 310.475 74.1307L316.274 75.6693ZM320.776 69.4705C323.262 67.7577 326.033 66.9 329.174 66.9V60.9C324.849 60.9 320.886 62.109 317.372 64.5295L320.776 69.4705ZM329.174 66.9C333.424 66.9 336.311 68.1292 338.278 70.2433L342.671 66.1567C339.304 62.5375 334.657 60.9 329.174 60.9V66.9ZM338.302 70.269C340.276 72.3414 341.474 75.4988 341.474 80.2H347.474C347.474 74.5012 346.006 69.6586 342.647 66.131L338.302 70.269ZM341.474 80.2V110H347.474V80.2H341.474ZM344.474 107H341.274V113H344.474V107ZM344.274 110V80.2H338.274V110H344.274ZM344.274 80.2C344.274 75.474 343.027 71.3719 340.186 68.2728L335.763 72.3272C337.322 74.0281 338.274 76.526 338.274 80.2H344.274ZM340.216 68.3069C337.453 65.1978 333.768 63.7 329.474 63.7V69.7C332.247 69.7 334.229 70.6022 335.732 72.2931L340.216 68.3069ZM329.474 63.7C326.281 63.7 323.288 64.5057 320.553 66.1142L323.595 71.2858C325.394 70.2276 327.335 69.7 329.474 69.7V63.7ZM320.611 66.0812C317.895 67.5986 315.714 69.6967 314.109 72.3451L319.24 75.4549C320.301 73.7033 321.72 72.3347 323.538 71.3188L320.611 66.0812ZM314.109 72.3451C312.48 75.0316 311.674 78.0061 311.674 81.2H317.674C317.674 79.0605 318.201 77.1684 319.24 75.4549L314.109 72.3451ZM311.674 81.2V110H317.674V81.2H311.674ZM314.674 107H311.474V113H314.674V107ZM314.474 110V82H308.474V110H314.474ZM314.474 82C314.474 76.7523 313.234 72.2382 310.36 68.8571L305.788 72.7429C307.448 74.6952 308.474 77.6477 308.474 82H314.474ZM310.383 68.885C307.538 65.4534 303.753 63.7 299.274 63.7V69.7C301.996 69.7 304.077 70.6799 305.765 72.715L310.383 68.885ZM299.274 63.7C296.35 63.7 293.558 64.437 290.938 65.8663L293.811 71.1337C295.59 70.163 297.399 69.7 299.274 69.7V63.7ZM290.903 65.8853C288.357 67.3179 286.246 69.2737 284.59 71.7175L289.558 75.0825C290.702 73.393 292.125 72.0821 293.845 71.1147L290.903 65.8853ZM284.578 71.7359C282.917 74.2279 282.074 77.0067 282.074 80H288.074C288.074 78.1932 288.565 76.5721 289.57 75.0641L284.578 71.7359ZM282.074 80V110H288.074V80H282.074ZM285.074 107H281.874V113H285.074V107ZM284.874 110V65H278.874V110H284.874ZM364.47 53.7L362.348 55.8213L362.399 55.8718L362.452 55.9198L364.47 53.7ZM364.47 48.8L362.452 46.5802L362.399 46.6282L362.348 46.6787L364.47 48.8ZM369.37 48.8L367.248 50.9213L367.299 50.9718L367.352 51.0198L369.37 48.8ZM369.37 53.7L367.352 51.4802L367.299 51.5282L367.248 51.5787L369.37 53.7ZM365.37 65V62H362.37V65H365.37ZM368.57 65H371.57V62H368.57V65ZM368.57 110V113H371.57V110H368.57ZM365.37 110H362.37V113H365.37V110ZM366.97 51.7C366.831 51.7 366.706 51.6788 366.488 51.4802L362.452 55.9198C363.7 57.0545 365.241 57.7 366.97 57.7V51.7ZM366.591 51.5787C366.53 51.5179 366.513 51.4814 366.505 51.4608C366.495 51.4368 366.47 51.3618 366.47 51.2H360.47C360.47 52.9421 361.082 54.5553 362.348 55.8213L366.591 51.5787ZM366.47 51.2C366.47 51.0986 366.486 51.0609 366.489 51.0538C366.492 51.0462 366.51 51.0021 366.591 50.9213L362.348 46.6787C361.125 47.9015 360.47 49.462 360.47 51.2H366.47ZM366.488 51.0198C366.706 50.8212 366.831 50.8 366.97 50.8V44.8C365.241 44.8 363.7 45.4455 362.452 46.5802L366.488 51.0198ZM366.97 50.8C367.071 50.8 367.109 50.8163 367.116 50.8192C367.123 50.8224 367.167 50.8406 367.248 50.9213L371.491 46.6787C370.268 45.4558 368.708 44.8 366.97 44.8V50.8ZM367.352 51.0198C367.457 51.1153 367.473 51.1614 367.467 51.15C367.466 51.1472 367.465 51.1445 367.466 51.1459C367.466 51.1478 367.47 51.1642 367.47 51.2H373.47C373.47 49.3643 372.703 47.7758 371.388 46.5802L367.352 51.0198ZM367.47 51.2C367.47 51.2661 367.464 51.3079 367.459 51.3304C367.455 51.3522 367.45 51.3626 367.449 51.3668C367.447 51.3709 367.443 51.3795 367.432 51.3947C367.42 51.4104 367.396 51.4395 367.352 51.4802L371.388 55.9198C372.753 54.6788 373.47 53.0365 373.47 51.2H367.47ZM367.248 51.5787C367.167 51.6594 367.123 51.6776 367.116 51.6808C367.109 51.6837 367.071 51.7 366.97 51.7V57.7C368.708 57.7 370.268 57.0442 371.491 55.8213L367.248 51.5787ZM365.37 68H368.57V62H365.37V68ZM365.57 65V110H371.57V65H365.57ZM368.57 107H365.37V113H368.57V107ZM368.37 110V65H362.37V110H368.37ZM402.58 37.9H405.58V34.9H402.58V37.9ZM385.28 37.9H382.28V40.9H385.28V37.9ZM385.28 35V32H382.28V35H385.28ZM422.98 35H425.98V32H422.98V35ZM422.98 37.9V40.9H425.98V37.9H422.98ZM405.88 37.9V34.9H402.88V37.9H405.88ZM405.88 110V113H408.88V110H405.88ZM402.58 110H399.58V113H402.58V110ZM402.58 34.9H385.28V40.9H402.58V34.9ZM388.28 37.9V35H382.28V37.9H388.28ZM385.28 38H422.98V32H385.28V38ZM419.98 35V37.9H425.98V35H419.98ZM422.98 34.9H405.88V40.9H422.98V34.9ZM402.88 37.9V110H408.88V37.9H402.88ZM405.88 107H402.58V113H405.88V107ZM405.58 110V37.9H399.58V110H405.58ZM429.985 53.7L427.864 55.8213L427.914 55.8718L427.967 55.9198L429.985 53.7ZM429.985 48.8L427.967 46.5802L427.914 46.6282L427.864 46.6787L429.985 48.8ZM434.885 48.8L432.764 50.9213L432.814 50.9718L432.867 51.0198L434.885 48.8ZM434.885 53.7L432.867 51.4802L432.814 51.5282L432.764 51.5787L434.885 53.7ZM430.885 65V62H427.885V65H430.885ZM434.085 65H437.085V62H434.085V65ZM434.085 110V113H437.085V110H434.085ZM430.885 110H427.885V113H430.885V110ZM432.485 51.7C432.347 51.7 432.222 51.6788 432.003 51.4802L427.967 55.9198C429.215 57.0545 430.757 57.7 432.485 57.7V51.7ZM432.106 51.5787C432.046 51.5179 432.029 51.4814 432.021 51.4608C432.011 51.4368 431.985 51.3618 431.985 51.2H425.985C425.985 52.9421 426.598 54.5553 427.864 55.8213L432.106 51.5787ZM431.985 51.2C431.985 51.0986 432.001 51.0609 432.004 51.0538C432.008 51.0462 432.026 51.0021 432.106 50.9213L427.864 46.6787C426.641 47.9015 425.985 49.462 425.985 51.2H431.985ZM432.003 51.0198C432.222 50.8212 432.347 50.8 432.485 50.8V44.8C430.757 44.8 429.215 45.4455 427.967 46.5802L432.003 51.0198ZM432.485 50.8C432.587 50.8 432.624 50.8163 432.631 50.8192C432.639 50.8224 432.683 50.8406 432.764 50.9213L437.006 46.6787C435.784 45.4558 434.223 44.8 432.485 44.8V50.8ZM432.867 51.0198C432.972 51.1153 432.988 51.1614 432.983 51.15C432.982 51.1472 432.981 51.1445 432.981 51.1459C432.982 51.1478 432.985 51.1642 432.985 51.2H438.985C438.985 49.3643 438.218 47.7758 436.903 46.5802L432.867 51.0198ZM432.985 51.2C432.985 51.2661 432.979 51.3079 432.975 51.3304C432.97 51.3522 432.966 51.3626 432.964 51.3668C432.962 51.3709 432.958 51.3795 432.947 51.3947C432.936 51.4104 432.912 51.4395 432.867 51.4802L436.903 55.9198C438.268 54.6788 438.985 53.0365 438.985 51.2H432.985ZM432.764 51.5787C432.683 51.6594 432.639 51.6776 432.631 51.6808C432.624 51.6837 432.587 51.7 432.485 51.7V57.7C434.223 57.7 435.784 57.0442 437.006 55.8213L432.764 51.5787ZM430.885 68H434.085V62H430.885V68ZM431.085 65V110H437.085V65H431.085ZM434.085 107H430.885V113H434.085V107ZM433.885 110V65H427.885V110H433.885ZM454.995 65V62H451.995V65H454.995ZM458.195 65H461.195V62H458.195V65ZM458.195 71.8H455.195V82.9141L460.788 73.3096L458.195 71.8ZM481.495 66.7L479.654 69.0681L479.674 69.0842L479.695 69.1L481.495 66.7ZM486.495 74.9L483.588 75.64L486.435 86.8254L489.395 75.6693L486.495 74.9ZM492.195 67L493.885 69.4787L493.891 69.4746L493.897 69.4705L492.195 67ZM513.595 68.2L511.399 70.2433L511.411 70.2562L511.423 70.269L513.595 68.2ZM517.595 110V113H520.595V110H517.595ZM514.395 110H511.395V113H514.395V110ZM511.095 70.3L508.853 72.2931L508.868 72.3102L508.884 72.3272L511.095 70.3ZM495.195 68.7L496.659 71.3188L496.688 71.3026L496.716 71.2858L495.195 68.7ZM489.795 73.9L487.23 72.3451V72.3451L489.795 73.9ZM487.795 110V113H490.795V110H487.795ZM484.595 110H481.595V113H484.595V110ZM481.195 70.8L478.886 72.715L478.898 72.729L478.909 72.7429L481.195 70.8ZM465.495 68.5L464.059 65.8663L464.042 65.8757L464.025 65.8853L465.495 68.5ZM460.195 73.4L457.712 71.7175L457.705 71.7267L457.699 71.7359L460.195 73.4ZM458.195 110V113H461.195V110H458.195ZM454.995 110H451.995V113H454.995V110ZM454.995 68H458.195V62H454.995V68ZM455.195 65V71.8H461.195V65H455.195ZM460.788 73.3096C463.246 69.0876 467.114 66.9 472.995 66.9V60.9C465.277 60.9 459.278 63.979 455.603 70.2904L460.788 73.3096ZM472.995 66.9C475.648 66.9 477.82 67.6423 479.654 69.0681L483.337 64.3319C480.37 62.0243 476.876 60.9 472.995 60.9V66.9ZM479.695 69.1C481.417 70.3916 482.779 72.4599 483.588 75.64L489.403 74.16C488.345 70.0068 486.373 66.6084 483.295 64.3L479.695 69.1ZM489.395 75.6693C490.067 73.1366 491.515 71.095 493.885 69.4787L490.505 64.5213C487.009 66.905 484.657 70.1301 483.596 74.1307L489.395 75.6693ZM493.897 69.4705C496.384 67.7577 499.154 66.9 502.295 66.9V60.9C497.97 60.9 494.007 62.109 490.493 64.5295L493.897 69.4705ZM502.295 66.9C506.545 66.9 509.432 68.1292 511.399 70.2433L515.792 66.1567C512.425 62.5375 507.778 60.9 502.295 60.9V66.9ZM511.423 70.269C513.397 72.3414 514.595 75.4988 514.595 80.2H520.595C520.595 74.5012 519.127 69.6586 515.768 66.131L511.423 70.269ZM514.595 80.2V110H520.595V80.2H514.595ZM517.595 107H514.395V113H517.595V107ZM517.395 110V80.2H511.395V110H517.395ZM517.395 80.2C517.395 75.474 516.148 71.3719 513.307 68.2728L508.884 72.3272C510.443 74.0281 511.395 76.526 511.395 80.2H517.395ZM513.338 68.3069C510.574 65.1978 506.889 63.7 502.595 63.7V69.7C505.368 69.7 507.35 70.6022 508.853 72.2931L513.338 68.3069ZM502.595 63.7C499.402 63.7 496.409 64.5057 493.674 66.1142L496.716 71.2858C498.515 70.2276 500.456 69.7 502.595 69.7V63.7ZM493.732 66.0812C491.016 67.5986 488.835 69.6967 487.23 72.3451L492.361 75.4549C493.422 73.7033 494.841 72.3347 496.659 71.3188L493.732 66.0812ZM487.23 72.3451C485.602 75.0316 484.795 78.0061 484.795 81.2H490.795C490.795 79.0605 491.322 77.1684 492.361 75.4549L487.23 72.3451ZM484.795 81.2V110H490.795V81.2H484.795ZM487.795 107H484.595V113H487.795V107ZM487.595 110V82H481.595V110H487.595ZM487.595 82C487.595 76.7523 486.355 72.2382 483.481 68.8571L478.909 72.7429C480.569 74.6952 481.595 77.6477 481.595 82H487.595ZM483.505 68.885C480.659 65.4534 476.874 63.7 472.395 63.7V69.7C475.117 69.7 477.198 70.6799 478.886 72.715L483.505 68.885ZM472.395 63.7C469.471 63.7 466.679 64.437 464.059 65.8663L466.932 71.1337C468.711 70.163 470.52 69.7 472.395 69.7V63.7ZM464.025 65.8853C461.478 67.3179 459.367 69.2737 457.712 71.7175L462.679 75.0825C463.824 73.393 465.246 72.0821 466.966 71.1147L464.025 65.8853ZM457.699 71.7359C456.038 74.2279 455.195 77.0067 455.195 80H461.195C461.195 78.1932 461.686 76.5721 462.691 75.0641L457.699 71.7359ZM455.195 80V110H461.195V80H455.195ZM458.195 107H454.995V113H458.195V107ZM457.995 110V65H451.995V110H457.995ZM567.991 105.7L566.496 103.099L567.991 105.7ZM575.791 98.3H578.791V88.303L573.286 96.6482L575.791 98.3ZM575.791 103.4L578.018 105.41L578.791 104.554V103.4H575.791ZM567.691 109.4L568.827 112.177L568.853 112.166L568.88 112.154L567.691 109.4ZM545.991 107.9L544.426 110.46L544.437 110.466L544.447 110.472L545.991 107.9ZM537.291 99.1L534.698 100.609L534.708 100.626L534.718 100.643L537.291 99.1ZM537.291 75.4L539.859 76.9506L539.865 76.94L539.871 76.9294L537.291 75.4ZM545.991 67L544.574 64.3556L544.564 64.3609L544.554 64.3663L545.991 67ZM576.091 72.2L578.198 74.3349L580.226 72.3332L578.331 70.2052L576.091 72.2ZM544.691 103.2L542.583 101.065L540.209 103.409L542.791 105.522L544.691 103.2ZM551.091 107.2L549.93 109.967L549.969 109.983L550.008 109.998L551.091 107.2ZM542.791 101.3L540.596 103.346L542.708 105.611L544.905 103.429L542.791 101.3ZM572.091 72.2L574.205 74.3286L576.483 72.066L574.071 69.9465L572.091 72.2ZM565.691 68.1L564.53 70.8666L564.569 70.8827L564.608 70.8977L565.691 68.1ZM547.391 69.5L548.843 72.1251L548.852 72.1199L548.861 72.1147L547.391 69.5ZM539.991 76.7L537.403 75.1814L539.991 76.7ZM558.091 111.4C562.104 111.4 565.917 110.351 569.485 108.301L566.496 103.099C563.798 104.649 561.01 105.4 558.091 105.4V111.4ZM569.485 108.301C573.04 106.259 575.981 103.461 578.295 99.9518L573.286 96.6482C571.467 99.4062 569.207 101.541 566.496 103.099L569.485 108.301ZM572.791 98.3V103.4H578.791V98.3H572.791ZM573.563 101.39C571.342 103.852 568.983 105.574 566.501 106.646L568.88 112.154C572.265 110.693 575.306 108.414 578.018 105.41L573.563 101.39ZM566.555 106.623C564.04 107.652 561.103 108.2 557.691 108.2V114.2C561.745 114.2 565.475 113.548 568.827 112.177L566.555 106.623ZM557.691 108.2C554.12 108.2 550.751 107.258 547.534 105.328L544.447 110.472C548.563 112.942 552.994 114.2 557.691 114.2V108.2ZM547.555 105.34C544.374 103.396 541.818 100.814 539.863 97.5565L534.718 100.643C537.164 104.719 540.407 108.004 544.426 110.46L547.555 105.34ZM539.884 97.5913C538.01 94.3701 537.091 90.9889 537.091 87.4H531.091C531.091 92.0778 532.305 96.4965 534.698 100.609L539.884 97.5913ZM537.091 87.4C537.091 83.4333 538.031 79.9778 539.859 76.9506L534.722 73.8494C532.283 77.8889 531.091 82.4333 531.091 87.4H537.091ZM539.871 76.9294C541.73 73.7928 544.235 71.3747 547.427 69.6337L544.554 64.3663C540.413 66.6253 537.118 69.8072 534.71 73.8706L539.871 76.9294ZM547.407 69.6444C550.674 67.8942 554.316 67 558.391 67V61C553.399 61 548.773 62.1058 544.574 64.3556L547.407 69.6444ZM558.391 67C564.415 67 569.517 69.3273 573.85 74.1948L578.331 70.2052C572.931 64.1394 566.233 61 558.391 61V67ZM573.983 70.0651L542.583 101.065L546.798 105.335L578.198 74.3349L573.983 70.0651ZM542.791 105.522C545.158 107.458 547.537 108.963 549.93 109.967L552.251 104.433C550.511 103.704 548.624 102.542 546.59 100.878L542.791 105.522ZM550.008 109.998C552.474 110.952 555.183 111.4 558.091 111.4V105.4C555.798 105.4 553.841 105.048 552.174 104.402L550.008 109.998ZM534.291 87.1C534.291 93.3682 536.395 98.8393 540.596 103.346L544.985 99.2544C541.852 95.894 540.291 91.8985 540.291 87.1H534.291ZM544.905 103.429L574.205 74.3286L569.977 70.0714L540.677 99.1714L544.905 103.429ZM574.071 69.9465C571.686 67.851 569.256 66.2631 566.774 65.3023L564.608 70.8977C566.259 71.5369 568.095 72.6823 570.11 74.4535L574.071 69.9465ZM566.851 65.3334C564.33 64.2762 561.449 63.8 558.291 63.8V69.8C560.866 69.8 562.918 70.1905 564.53 70.8666L566.851 65.3334ZM558.291 63.8C553.765 63.8 549.616 64.8063 545.92 66.8853L548.861 72.1147C551.565 70.5937 554.682 69.8 558.291 69.8V63.8ZM545.938 66.8749C542.338 68.8667 539.478 71.6474 537.403 75.1814L542.578 78.2186C544.104 75.6193 546.177 73.6 548.843 72.1251L545.938 66.8749ZM537.403 75.1814C535.31 78.7483 534.291 82.7476 534.291 87.1H540.291C540.291 83.7191 541.072 80.785 542.578 78.2186L537.403 75.1814Z" fill="white" mask="url(#path-1-outside-1_27_158)"/>
<path d="M269.312 86.692C269.312 101.38 257.697 113.287 243.368 113.287C229.039 113.287 217.424 101.38 217.424 86.692C217.424 72.004 229.039 60.0969 243.368 60.0969C257.697 60.0969 269.312 72.004 269.312 86.692Z" fill="#22016F" stroke="white" stroke-width="4"/>
<path d="M208 51L270 111.735" stroke="#22016F" stroke-width="10"/>
<path d="M218.663 111.637L266.355 64.9184" stroke="#22016F" stroke-width="10"/>
<path d="M243.566 69.4345C243.253 69.1221 242.747 69.1221 242.434 69.4345L237.343 74.5256C237.031 74.8381 237.031 75.3446 237.343 75.657C237.656 75.9694 238.162 75.9694 238.475 75.657L243 71.1315L247.525 75.657C247.838 75.9694 248.344 75.9694 248.657 75.657C248.969 75.3446 248.969 74.8381 248.657 74.5256L243.566 69.4345ZM243.8 86.2295V70.0002H242.2V86.2295H243.8Z" fill="white"/>
<path d="M256.601 87.495C256.874 87.2216 256.874 86.7784 256.601 86.505L252.146 82.0503C251.872 81.7769 251.429 81.7769 251.156 82.0503C250.883 82.3236 250.883 82.7668 251.156 83.0402L255.116 87L251.156 90.9598C250.883 91.2332 250.883 91.6764 251.156 91.9497C251.429 92.2231 251.872 92.2231 252.146 91.9497L256.601 87.495ZM242 87.7H256.106V86.3H242V87.7Z" fill="white"/>
<path d="M246.557 86.8731C246.557 89.0121 244.865 90.7461 242.778 90.7461C240.692 90.7461 239 89.0121 239 86.8731C239 84.734 240.692 83 242.778 83C244.865 83 246.557 84.734 246.557 86.8731Z" fill="white"/>
<path d="M273 114V58" stroke="white" stroke-width="3"/>
<path d="M235 56H252" stroke="white" stroke-width="3"/>
<path d="M111.532 66.5983C111.532 92.3589 91.1603 113.242 66.0301 113.242C40.8999 113.242 20.5278 92.3589 20.5278 66.5983C20.5278 40.8377 40.8999 19.9546 66.0301 19.9546C91.1603 19.9546 111.532 40.8377 111.532 66.5983Z" fill="#22016F" stroke="white" stroke-width="4"/>
<path d="M4 4L112.738 110.519" stroke="#22016F" stroke-width="10"/>
<path d="M22.7012 110.349L106.346 28.4107" stroke="#22016F" stroke-width="10"/>
<path d="M66.0607 27.4316C65.4749 26.8459 64.5251 26.8459 63.9393 27.4316L54.3934 36.9776C53.8076 37.5634 53.8076 38.5131 54.3934 39.0989C54.9792 39.6847 55.9289 39.6847 56.5147 39.0989L65 30.6136L73.4853 39.0989C74.0711 39.6847 75.0208 39.6847 75.6066 39.0989C76.1924 38.5131 76.1924 37.5634 75.6066 36.9776L66.0607 27.4316ZM66.5 65.4923L66.5 28.4923L63.5 28.4923L63.5 65.4923L66.5 65.4923Z" fill="white"/>
<path d="M94.0607 68.553C94.6464 67.9672 94.6464 67.0174 94.0607 66.4316L84.5147 56.8857C83.9289 56.2999 82.9792 56.2999 82.3934 56.8857C81.8076 57.4715 81.8076 58.4212 82.3934 59.007L90.8787 67.4923L82.3934 75.9776C81.8076 76.5634 81.8076 77.5131 82.3934 78.0989C82.9792 78.6847 83.9289 78.6847 84.5147 78.0989L94.0607 68.553ZM64 68.9923H93V65.9923H64V68.9923Z" fill="white"/>
<path d="M71.6223 66.9158C71.6223 70.6674 68.6555 73.7086 64.9957 73.7086C61.336 73.7086 58.3692 70.6674 58.3692 66.9158C58.3692 63.1643 61.336 60.1231 64.9957 60.1231C68.6555 60.1231 71.6223 63.1643 71.6223 66.9158Z" fill="white"/>
<path d="M118 114.492V16.2769" stroke="white" stroke-width="3"/>
<path d="M51.354 12.7692H81.1694" stroke="white" stroke-width="3"/>
</svg>
