<svg width="106" height="106" viewBox="0 0 106 106" fill="none" xmlns="http://www.w3.org/2000/svg">
<path d="M28.0164 91.1029L29.7494 91.9623C36.9701 96.2596 45.0573 98.265 53.1445 98.265C78.5614 98.265 99.357 77.638 99.357 52.4272C99.357 40.3948 94.4469 28.6488 85.7821 20.0542C77.1172 11.4596 65.5641 6.58936 53.1445 6.58936C27.7276 6.58936 6.93192 27.2164 7.22075 52.7137C7.22075 61.3083 9.8202 69.6164 14.1526 76.7785L15.3079 78.4975L10.6867 95.4002L28.0164 91.1029Z" fill="#00E676"/>
<path d="M90.6921 15.4703C80.8719 5.44324 67.297 0 53.4332 0C23.9728 0 0.288828 23.7784 0.577657 52.7135C0.577657 61.8811 3.17711 70.7622 7.50954 78.7838L0 106L28.0163 98.8378C35.8147 103.135 44.4796 105.141 53.1444 105.141C82.3161 105.141 106 81.3622 106 52.427C106 38.3892 100.512 25.2108 90.6921 15.4703ZM53.4332 96.2595C45.6349 96.2595 37.8365 94.2541 31.1935 90.2432L29.4605 89.3838L12.7084 93.6811L17.0409 77.3514L15.8856 75.6324C3.17711 55.2919 9.24251 28.3622 30.0381 15.7568C50.8338 3.15135 77.6948 9.16757 90.4033 29.7946C103.112 50.4216 97.0463 77.0649 76.2507 89.6703C69.6076 93.9676 61.5204 96.2595 53.4332 96.2595ZM78.8501 64.4595L75.673 63.027C75.673 63.027 71.0518 61.0216 68.1635 59.5892C67.8747 59.5892 67.5858 59.3027 67.297 59.3027C66.4305 59.3027 65.8529 59.5892 65.2752 59.8757C65.2752 59.8757 64.9864 60.1622 60.9428 64.7459C60.654 65.3189 60.0763 65.6054 59.4986 65.6054H59.2098C58.921 65.6054 58.3433 65.3189 58.0545 65.0324L56.6104 64.4595C53.4332 63.027 50.545 61.3081 48.2343 59.0162C47.6567 58.4432 46.7902 57.8703 46.2125 57.2973C44.1907 55.2919 42.1689 53 40.7248 50.4216L40.436 49.8487C40.1471 49.5622 40.1471 49.2757 39.8583 48.7027C39.8583 48.1297 39.8583 47.5568 40.1471 47.2703C40.1471 47.2703 41.3025 45.8378 42.1689 44.9784C42.7466 44.4054 43.0354 43.5459 43.6131 42.973C44.1907 42.1135 44.4796 40.9676 44.1907 40.1081C43.9019 38.6757 40.436 30.9405 39.5695 29.2216C38.9918 28.3622 38.4142 28.0757 37.5477 27.7892H36.6812C36.1035 27.7892 35.2371 27.7892 34.3706 27.7892C33.7929 27.7892 33.2153 28.0757 32.6376 28.0757L32.3488 28.3622C31.7711 28.6486 31.1935 29.2216 30.6158 29.5081C30.0381 30.0811 29.7493 30.6541 29.1717 31.227C27.1499 33.8054 25.9946 36.9568 25.9946 40.1081C25.9946 42.4 26.5722 44.6919 27.4387 46.6973L27.7275 47.5568C30.327 53 33.7929 57.8703 38.4142 62.1676L39.5695 63.3135C40.436 64.173 41.3025 64.7459 41.8801 65.6054C47.9455 70.7622 54.8774 74.4865 62.6758 76.4919C63.5422 76.7784 64.6975 76.7784 65.564 77.0649C66.4305 77.0649 67.5858 77.0649 68.4523 77.0649C69.8965 77.0649 71.6294 76.4919 72.7847 75.9189C73.6512 75.3459 74.2289 75.3459 74.8065 74.773L75.3842 74.2C75.9619 73.627 76.5395 73.3405 77.1172 72.7676C77.6948 72.1946 78.2725 71.6216 78.5613 71.0487C79.139 69.9027 79.4278 68.4703 79.7166 67.0378C79.7166 66.4649 79.7166 65.6054 79.7166 65.0324C79.7166 65.0324 79.4278 64.7459 78.8501 64.4595Z" fill="white"/>
</svg>
